<svg xmlns="http://www.w3.org/2000/svg" viewBox="0 0 360 320">
  <rect width="360" height="320" fill="#121212"/>
  <g transform="translate(115, 30)">
    <g stroke="#C5A059" stroke-width="1.6" stroke-linecap="round">
      <line x1="41.4" y1="29.8" x2="31.5" y2="28.1"/>
      <line x1="47.2" y1="17.9" x2="39.7" y2="11.3"/>
      <line x1="58.4" y1="10.9" x2="55.6" y2="1.3"/>
      <line x1="71.6" y1="10.9" x2="74.4" y2="1.3"/>
      <line x1="82.8" y1="17.9" x2="90.3" y2="11.3"/>
      <line x1="88.6" y1="29.8" x2="98.5" y2="28.1"/>
    </g>
    <path d="M65,14 C74,26 79,35 79,43 A14,14 0 1 1 51,43 C51,35 56,26 65,14 Z"
          fill="none" stroke="#C5A059" stroke-width="2.6" stroke-linejoin="round"/>
    <ellipse cx="42" cy="80" rx="26" ry="17" fill="none" stroke="#C5A059" stroke-width="2.6"/>
    <ellipse cx="88" cy="80" rx="26" ry="17" fill="none" stroke="#C5A059" stroke-width="2.6"/>
  </g>
  <text x="180" y="235" text-anchor="middle" font-family="'Playfair Display', Georgia, 'Times New Roman', serif" font-size="42" letter-spacing="7" fill="#C5A059">LOOMOS</text>
  <text x="180" y="266" text-anchor="middle" font-family="'Inter', Arial, sans-serif" font-size="12" letter-spacing="3" fill="#C5A059">SÓJOVÉ SVÍČKY · RUČNÍ VÝROBA</text>
</svg>
